<svg width="60" height="26" viewBox="0 0 60 26" fill="none" xmlns="http://www.w3.org/2000/svg">
<path d="M8.79565 7.98405C10.8144 4.03738 19.5469 1.06604 30.026 1.06604C40.3463 1.06604 48.9881 3.94666 51.1656 7.80259L8.79565 7.98405Z" fill="#F6EDFF"/>
<path d="M9.7483 8.48307L7.84302 7.50775C10.1112 3.08476 19.2294 0 30.026 0C40.5958 0 49.6686 2.99403 52.0956 7.28093L50.2357 8.34697C48.4892 5.26222 40.9814 2.15479 30.026 2.15479C18.9572 2.15479 11.3134 5.39832 9.7483 8.48307Z" fill="#D8CCEB"/>
<path d="M58.9001 24.8595H1.03833L8.09243 7.98405H51.8687L58.9001 24.8595Z" fill="#F6EDFF"/>
<path d="M58.9002 25.9255H1.06111C0.698195 25.9255 0.357967 25.7441 0.176511 25.4492C-0.027627 25.1544 -0.0503145 24.7688 0.0857774 24.4512L7.11719 7.59849C7.27597 7.19021 7.68425 6.94072 8.11521 6.94072H51.8915C52.3224 6.94072 52.708 7.19021 52.8895 7.59849L59.9209 24.4512C60.057 24.7914 60.0116 25.1544 59.8301 25.4492C59.5806 25.7441 59.2631 25.9255 58.9002 25.9255ZM2.64885 23.7707H57.2898L51.1429 9.05014H8.79567L2.64885 23.7707Z" fill="#D8CCEB"/>
</svg>
