<svg width="50" height="61" viewBox="0 0 50 61" fill="none" xmlns="http://www.w3.org/2000/svg">
<path d="M25 48.6782C38.0772 48.6782 48.6783 38.0771 48.6783 25C48.6783 11.9228 38.0772 1.32171 25 1.32171C11.9229 1.32171 1.32178 11.9228 1.32178 25C1.32178 38.0771 11.9229 48.6782 25 48.6782Z" fill="#F6EDFF"/>
<path d="M25 49.9999C11.2205 49.9999 0 38.7795 0 25C0 11.2204 11.2205 0 25 0C38.7795 0 49.9999 11.2204 49.9999 25C50.0281 38.7795 38.8076 49.9999 25 49.9999ZM25 2.64341C12.6828 2.64341 2.64342 12.6828 2.64342 25C2.64342 37.3172 12.6828 47.3565 25 47.3565C37.3172 47.3565 47.3565 37.3172 47.3565 25C47.3565 12.6546 37.3453 2.64341 25 2.64341Z" fill="#D8CCEB"/>
<path d="M46.0066 37.0359C30.9054 35.5174 21.1473 27.8683 15.6355 21.7379C9.67372 15.0731 7.28338 8.83013 7.1709 8.57703L9.6456 7.64903C9.70184 7.76151 12.0078 13.7795 17.6602 20.0506C25.2249 28.4308 34.8424 33.2677 46.2597 34.4206L46.0066 37.0359Z" fill="#D8CCEB"/>
<path d="M43.4476 40.6917C28.3745 40.6917 18.3633 33.2958 12.5702 27.0528C6.27104 20.2475 3.62762 13.5264 3.51514 13.2171L5.98984 12.261C6.01796 12.3172 8.60513 18.8976 14.595 25.3093C22.5252 33.8582 32.3677 38.1327 43.8413 38.0202L43.8694 40.6917C43.7007 40.6917 43.5601 40.6917 43.4476 40.6917Z" fill="#D8CCEB"/>
<path d="M7.78958 41.9572L6.86157 39.4825C26.3216 32.1709 30.0336 2.33408 30.0618 2.02474L32.7052 2.33407C32.6771 2.64341 31.749 10.3206 28.262 19.0663C23.5657 30.7649 16.5072 38.667 7.78958 41.9572Z" fill="#D8CCEB"/>
<path d="M11.9236 45.5849L10.855 43.1664C33.9708 32.9302 35.0675 4.49942 35.0675 4.19008L37.711 4.27446C37.711 4.5838 37.4579 11.9516 34.1958 20.7536C29.837 32.4521 22.1317 41.0573 11.9236 45.5849Z" fill="#D8CCEB"/>
<path d="M31.7771 60.1518C28.7963 60.1518 25.3936 59.8143 23.9031 58.4645C23.2845 57.9021 22.947 57.1709 22.947 56.3835C22.9751 53.4026 26.7153 52.559 31.046 51.5466C34.2237 50.8155 37.8514 49.9718 40.4386 48.3127C41.9571 47.3284 42.7726 46.2879 42.857 45.1912C42.9976 43.532 41.4509 42.1259 41.4509 42.0978L43.2226 40.1293C43.3351 40.2137 45.7535 42.4353 45.5004 45.388C45.3598 47.3565 44.1225 49.0719 41.8728 50.5343C38.8919 52.4465 35.0392 53.3464 31.6365 54.1338C29.2462 54.6962 25.6186 55.5117 25.6186 56.3835C25.9841 57.2834 31.0179 57.8177 36.6984 57.199L36.9796 59.8424C36.2203 59.9549 34.1112 60.1518 31.7771 60.1518Z" fill="#D8CCEB"/>
</svg>
