<svg width="30" height="68" viewBox="0 0 30 68" fill="none" xmlns="http://www.w3.org/2000/svg">
<path d="M10.2857 21.1521C12.1382 21.4286 13.8525 23.5852 15.705 23.917C19.2165 24.553 22.811 22.9493 26.2672 22.0922C25.8248 20.7926 25.3271 19.5207 24.7741 18.2765L21.0138 9.87096H9.17967L5.41931 18.0829C4.89396 19.2442 4.39625 20.4332 3.95386 21.6498C6.08289 21.4562 8.12898 20.8479 10.2857 21.1521Z" fill="white"/>
<path d="M16.7834 24.1106C14.6544 23.8617 12.7742 23.0599 10.7005 22.5899C8.29495 22.0369 5.91707 22.8664 3.51154 23.0323C2.0461 27.5115 1.29956 32.212 1.29956 36.9401V62.8479C1.29956 67.4378 28.7005 67.4378 28.7005 62.8479V36.6912C28.7005 32.1567 28.0093 27.6774 26.6821 23.3917C23.447 24.1659 20.1014 24.4977 16.7834 24.1106Z" fill="#F6EDFF"/>
<path d="M15.0138 67.6037C10.5069 67.6037 0 67.1337 0 62.8479V36.9401C0 30.3042 1.46542 23.5852 4.23039 17.5576L7.99079 9.34563C8.21199 8.87558 8.65436 8.57142 9.17971 8.57142H21.0138C21.5392 8.57142 22.0092 8.87558 22.2027 9.34563L25.9631 17.7512C28.6452 23.7512 30 30.1106 30 36.6636V62.8203C30 67.1336 19.5207 67.6037 15.0138 67.6037ZM2.59909 62.8203C2.98618 63.5668 7.07833 65.0046 14.9862 65.0046C22.894 65.0046 26.9862 63.5668 27.3733 62.8203V36.6912C27.3733 30.4977 26.1014 24.4977 23.5576 18.8295L20.1567 11.1982H10.0092L6.58062 18.6359C3.9539 24.3318 2.57141 30.6636 2.57141 36.9124V62.8203H2.59909Z" fill="#D8CCEB"/>
<path d="M23.5853 1.29954H6.41479V9.89862H23.5853V1.29954Z" fill="#F6EDFF"/>
<path d="M23.5853 11.1981H6.41476C5.69587 11.1981 5.11523 10.6175 5.11523 9.89862V1.29953C5.11523 0.58064 5.69587 0 6.41476 0H23.5853C24.3042 0 24.8848 0.58064 24.8848 1.29953V9.89862C24.8848 10.6175 24.3042 11.1981 23.5853 11.1981ZM7.71432 8.57142H22.2857V2.59908H7.71432V8.57142Z" fill="#D8CCEB"/>
<path d="M18.2765 25.2166C16.5069 25.2166 14.7374 24.9677 13.2443 24.3042C9.12446 22.3963 4.09219 23.6959 4.03689 23.7235L3.37329 21.2074C3.62214 21.1521 9.37331 19.659 14.3503 21.9539C17.7512 23.5023 23.9171 22.0369 26.0185 21.318L26.848 23.8065C26.5991 23.8618 22.4516 25.2166 18.2765 25.2166Z" fill="#D8CCEB"/>
</svg>
