<svg width="50" height="52" viewBox="0 0 50 52" fill="none" xmlns="http://www.w3.org/2000/svg">
<path d="M46.6832 18.9516V1.07335L36.0063 8.86526C32.8713 7.52496 29.1912 6.7753 25.0113 6.7753C20.7405 6.7753 17.0603 7.50224 13.9254 8.79711L3.33931 1.07335V18.7244C1.86271 21.8366 1.09033 25.3805 1.09033 29.1515C1.09033 41.5095 11.8127 50.1419 25.0113 50.1419C38.2325 50.1419 48.9322 41.5095 48.9322 29.1515C48.9322 25.4713 48.1598 22.0184 46.6832 18.9516Z" fill="#F6EDFF"/>
<path d="M24.9886 51.2324C10.7451 51.2324 0 41.7367 0 29.1515C0 25.2669 0.749658 21.6776 2.24898 18.4972V1.07334C2.24898 0.66444 2.47615 0.300969 2.83962 0.119234C3.20309 -0.0625019 3.63471 -0.0397863 3.95275 0.2101L14.0618 7.57039C17.3103 6.32096 20.9905 5.68489 24.9886 5.68489C28.9414 5.68489 32.5988 6.34368 35.8473 7.63854L46.0472 0.2101C46.3653 -0.0170694 46.7969 -0.0625019 47.1604 0.119234C47.5239 0.300969 47.751 0.66444 47.751 1.07334V18.7244C49.2276 21.9048 50 25.4032 50 29.1515C50 41.7367 39.2549 51.2324 24.9886 51.2324ZM4.38437 3.18602V18.7244C4.38437 18.8834 4.33893 19.0424 4.27078 19.1788C2.86233 22.1547 2.13539 25.4941 2.13539 29.1515C2.13539 40.51 11.9491 49.0743 24.9886 49.0743C38.0282 49.0743 47.8419 40.51 47.8419 29.1515C47.8419 25.6304 47.1149 22.3591 45.7065 19.4286C45.6383 19.2923 45.5929 19.1333 45.5929 18.9743V3.18602L36.6197 9.7285C36.3244 9.95567 35.9155 10.0011 35.5747 9.84208C32.4398 8.50178 28.896 7.843 24.9886 7.843C21.0132 7.843 17.4239 8.50179 14.3117 9.79665C13.9709 9.93296 13.562 9.88752 13.2667 9.68307L4.38437 3.18602Z" fill="#D8CCEB"/>
<path d="M16.1065 26.062C17.1603 26.062 18.0147 25.2076 18.0147 24.1538C18.0147 23.0999 17.1603 22.2455 16.1065 22.2455C15.0526 22.2455 14.1982 23.0999 14.1982 24.1538C14.1982 25.2076 15.0526 26.062 16.1065 26.062Z" fill="#D8CCEB"/>
<path d="M33.8938 26.062C34.9477 26.062 35.802 25.2076 35.802 24.1538C35.802 23.0999 34.9477 22.2455 33.8938 22.2455C32.8399 22.2455 31.9856 23.0999 31.9856 24.1538C31.9856 25.2076 32.8399 26.062 33.8938 26.062Z" fill="#D8CCEB"/>
<path d="M24.9886 29.4922C24.9886 29.4922 21.8082 29.2651 21.581 31.2187C21.3539 33.1724 24.9886 34.8989 24.9886 34.8989C24.9886 34.8989 28.6233 33.1724 28.3961 31.2187C28.1917 29.2878 24.9886 29.4922 24.9886 29.4922Z" fill="#D8CCEB"/>
<path d="M24.9887 39.2832C24.5571 39.2832 24.2163 38.9425 24.2163 38.5109V33.1951C24.2163 32.7635 24.5571 32.4227 24.9887 32.4227C25.4203 32.4227 25.7611 32.7635 25.7611 33.1951V38.5109C25.7611 38.9425 25.4203 39.2832 24.9887 39.2832Z" fill="#D8CCEB"/>
<path d="M24.9887 39.2833C23.3758 39.2833 21.7629 38.6017 20.1954 37.2614C19.8774 36.9888 19.8319 36.5118 20.1045 36.171C20.3771 35.853 20.8542 35.8076 21.1949 36.0802C23.7847 38.3064 26.2154 38.3064 28.7824 36.0802C29.1004 35.8076 29.5775 35.8303 29.8728 36.171C30.1454 36.4891 30.1227 36.9661 29.782 37.2614C28.2145 38.6017 26.6016 39.2833 24.9887 39.2833Z" fill="#D8CCEB"/>
<path d="M11.8127 30.719H6.97404C6.54242 30.719 6.20166 30.3782 6.20166 29.9466C6.20166 29.515 6.54242 29.1742 6.97404 29.1742H11.8127C12.2444 29.1742 12.5851 29.515 12.5851 29.9466C12.5624 30.3782 12.2217 30.719 11.8127 30.719Z" fill="#D8CCEB"/>
<path d="M8.58709 34.7171C8.22362 34.7171 7.88287 34.4445 7.83744 34.0811C7.76929 33.6722 8.0646 33.2633 8.47351 33.1951L11.6766 32.6953C12.0855 32.6272 12.4944 32.9225 12.5626 33.3314C12.6307 33.7403 12.3354 34.1492 11.9265 34.2174L8.70068 34.7399C8.65524 34.7171 8.63253 34.7171 8.58709 34.7171Z" fill="#D8CCEB"/>
<path d="M9.38202 38.9879C9.0867 38.9879 8.8141 38.8289 8.6778 38.5336C8.49606 38.1474 8.6778 37.6931 9.06399 37.5113L13.3121 35.6031C13.6982 35.4214 14.1526 35.6031 14.3343 35.9893C14.5161 36.3755 14.3343 36.8298 13.9481 37.0115L9.70006 38.9198C9.60919 38.9652 9.49561 38.9879 9.38202 38.9879Z" fill="#D8CCEB"/>
<path d="M43.0259 30.719H38.1872C37.7556 30.719 37.4148 30.3782 37.4148 29.9466C37.4148 29.515 37.7556 29.1742 38.1872 29.1742H43.0259C43.4575 29.1742 43.7983 29.515 43.7983 29.9466C43.7983 30.3782 43.4575 30.719 43.0259 30.719Z" fill="#D8CCEB"/>
<path d="M41.413 34.7171C41.3676 34.7171 41.3221 34.7171 41.2994 34.7171L38.0736 34.1946C37.6647 34.1265 37.3694 33.7403 37.4375 33.3087C37.5057 32.8998 37.8919 32.6045 38.3235 32.6726L41.5493 33.1951C41.9582 33.2633 42.2535 33.6494 42.1854 34.0811C42.1172 34.4445 41.7765 34.7171 41.413 34.7171Z" fill="#D8CCEB"/>
<path d="M40.6179 38.9879C40.5043 38.9879 40.4134 38.9652 40.2998 38.9198L36.0518 37.0115C35.6656 36.8298 35.4839 36.3755 35.6656 35.9893C35.8473 35.6031 36.3017 35.4214 36.6879 35.6031L40.9359 37.5113C41.3221 37.6931 41.5038 38.1474 41.3221 38.5336C41.1858 38.8289 40.8905 38.9879 40.6179 38.9879Z" fill="#D8CCEB"/>
<path d="M6.36081 17.4295C6.13364 17.4295 5.92918 17.3387 5.77017 17.1569C5.49756 16.8389 5.54299 16.3391 5.86103 16.0665C6.95145 15.1351 8.54163 13.4087 8.6325 12.5C8.6325 11.5686 5.54299 6.38912 2.68066 2.16376C2.45349 1.82301 2.54436 1.34595 2.88511 1.09606C3.22587 0.868895 3.70292 0.959765 3.95281 1.30052C5.86103 4.14014 10.3136 10.9098 10.1545 12.6363C9.99552 14.4991 7.38307 16.7935 6.86058 17.2478C6.70156 17.3614 6.51983 17.4295 6.36081 17.4295Z" fill="#D8CCEB"/>
<path d="M43.6392 17.4295C43.4575 17.4295 43.2984 17.3614 43.1394 17.2478C42.6169 16.7935 40.0045 14.4991 39.8455 12.6363C39.6864 10.9098 44.139 4.14013 46.0472 1.30051C46.2744 0.95976 46.7514 0.846173 47.1149 1.09606C47.4556 1.32323 47.5465 1.80029 47.3193 2.16376C44.457 6.41183 41.3675 11.5686 41.3675 12.5227C41.4584 13.4314 43.0258 15.1578 44.139 16.0892C44.457 16.3618 44.5024 16.8389 44.2298 17.1797C44.0708 17.3387 43.8664 17.4295 43.6392 17.4295Z" fill="#D8CCEB"/>
</svg>
