<svg width="40" height="63" viewBox="0 0 40 63" fill="none" xmlns="http://www.w3.org/2000/svg">
<path d="M1.27832 5.88548C1.27832 -0.266312 38.7217 -0.266312 38.7217 5.88548C38.7217 11.6378 1.27832 11.6378 1.27832 5.88548Z" fill="white"/>
<path d="M38.7217 56.6711C38.7217 62.1837 1.27832 62.1837 1.27832 56.6711V5.88548C1.27832 10.759 38.7217 10.759 38.7217 5.88548V56.6711Z" fill="#F6EDFF"/>
<path d="M20 62.0506C15.02 62.0506 10.3595 61.6777 6.87083 60.9853C3.91478 60.3994 0 59.3342 0 56.6445V5.88547C0 5.19306 0.559258 4.6338 1.25167 4.6338C1.91745 4.6338 2.47669 5.1398 2.50332 5.80558C3.24899 6.84419 9.64048 8.28227 19.9734 8.28227C30.3063 8.28227 36.7244 6.84419 37.4434 5.80558C37.4967 5.1398 38.0293 4.6338 38.6951 4.6338C39.3875 4.6338 39.9467 5.19306 39.9467 5.88547V56.6445C40 61.518 26.0186 62.0506 20 62.0506ZM2.52996 8.70837V56.6445C2.8229 57.6032 8.38881 59.5206 20 59.5206C31.5845 59.5206 37.1505 57.6298 37.47 56.6445V8.70837C36.3782 9.1611 34.9401 9.53394 33.1025 9.85351C29.6405 10.466 24.98 10.7856 20 10.7856C15.02 10.7856 10.3861 10.466 6.89746 9.85351C5.05991 9.56057 3.62184 9.1611 2.52996 8.70837Z" fill="#D8CCEB"/>
<path d="M40 5.88548H37.47C37.47 5.59254 36.5646 4.5273 32.5965 3.64847C29.2943 2.92943 24.8202 2.52996 20 2.52996C15.1798 2.52996 10.7057 2.92943 7.40346 3.64847C3.43542 4.5273 2.52996 5.56591 2.52996 5.88548H0C0 0.426096 15.2863 0 19.9734 0C24.6605 0 40 0.452727 40 5.88548Z" fill="#D8CCEB"/>
<path d="M15.313 26.285V39.6538C11.6646 38.7217 8.52209 36.5912 6.07202 32.9694C7.98946 29.4008 11.2385 27.3502 15.313 26.285Z" fill="white"/>
<path d="M15.3131 40.9321C15.2066 40.9321 15.1 40.9321 14.9935 40.8788C10.919 39.8136 7.56343 37.3902 5.00684 33.6884C4.74052 33.289 4.7139 32.8096 4.92695 32.3835C6.92428 28.7084 10.1999 26.3116 14.9669 25.0866C15.3397 24.98 15.7392 25.0599 16.0588 25.2996C16.3783 25.5393 16.5381 25.9121 16.5381 26.285V39.6538C16.5381 40.0533 16.3517 40.3995 16.0588 40.6392C15.8723 40.8256 15.606 40.9321 15.3131 40.9321ZM7.56342 32.9161C9.34771 35.3129 11.4782 36.9907 14.0614 37.9494V27.9894C11.132 29.0013 9.0015 30.6258 7.56342 32.9161Z" fill="#D8CCEB"/>
<path d="M30.839 31.7177H15.313V34.2477H30.839V31.7177Z" fill="#D8CCEB"/>
<path d="M18.7751 37.1238C18.0827 37.1238 17.5234 36.5646 17.5234 35.8722V29.241C17.5234 28.5486 18.0827 27.9893 18.7751 27.9893C19.4675 27.9893 20.0268 28.5486 20.0268 29.241V35.8722C20.0268 36.5646 19.4675 37.1238 18.7751 37.1238Z" fill="#D8CCEB"/>
<path d="M21.811 37.1238C21.1186 37.1238 20.5593 36.5646 20.5593 35.8722V29.241C20.5593 28.5486 21.1186 27.9893 21.811 27.9893C22.5034 27.9893 23.0626 28.5486 23.0626 29.241V35.8722C23.0893 36.5646 22.5034 37.1238 21.811 37.1238Z" fill="#D8CCEB"/>
<path d="M24.8469 37.1238C24.1545 37.1238 23.5952 36.5646 23.5952 35.8722V29.241C23.5952 28.5486 24.1545 27.9893 24.8469 27.9893C25.5393 27.9893 26.0985 28.5486 26.0985 29.241V35.8722C26.1252 36.5646 25.5393 37.1238 24.8469 37.1238Z" fill="#D8CCEB"/>
<path d="M31.7978 28.4421L27.6167 32.9694L31.7978 37.257L30.8657 32.9694L31.7978 28.4421Z" fill="#D8CCEB"/>
<path d="M31.7976 38.5086C31.478 38.5086 31.1318 38.3755 30.8922 38.1358L26.7111 33.8748C26.2317 33.3955 26.2317 32.6232 26.6844 32.1438L30.8655 27.6165C31.2384 27.1904 31.8509 27.0839 32.3569 27.3502C32.8629 27.6165 33.1292 28.1758 33.0226 28.735L32.1438 32.996L33.0226 37.0173C33.1558 37.5766 32.8895 38.1358 32.3835 38.4021C32.2237 38.4554 32.0107 38.5086 31.7976 38.5086ZM29.3742 32.9427L29.6405 33.209C29.6139 33.0493 29.6139 32.8628 29.6405 32.7031L29.6671 32.6232L29.3742 32.9427Z" fill="#D8CCEB"/>
<path d="M12.2504 31.2384C12.7505 31.2384 13.1559 30.833 13.1559 30.3329C13.1559 29.8328 12.7505 29.4274 12.2504 29.4274C11.7504 29.4274 11.345 29.8328 11.345 30.3329C11.345 30.833 11.7504 31.2384 12.2504 31.2384Z" fill="#D8CCEB"/>
</svg>
