<svg width="60" height="30" viewBox="0 0 60 30" fill="none" xmlns="http://www.w3.org/2000/svg">
<path d="M19.9066 1.15144V28.2859C12.5019 26.3804 6.13434 22.0631 1.1416 14.7066C5.04896 7.44663 11.6336 3.29808 19.9066 1.15144Z" fill="#F6EDFF"/>
<path d="M19.9066 29.4436C19.8102 29.4436 19.7137 29.4436 19.6172 29.3954C11.6578 27.3452 5.1455 22.6178 0.200996 15.3578C-0.0401988 14.996 -0.064319 14.5619 0.128637 14.176C3.96364 7.0607 10.3312 2.45388 19.6172 0.0419289C19.9549 -0.0545492 20.3167 0.0178064 20.6061 0.234882C20.8955 0.451958 21.0403 0.789634 21.0403 1.12731V28.2618C21.0403 28.6235 20.8714 28.9371 20.6061 29.1542C20.389 29.3471 20.1478 29.4436 19.9066 29.4436ZM2.46823 14.6583C6.78562 20.7847 12.116 24.7644 18.7489 26.7905V2.67095C11.1754 4.91406 5.82084 8.84554 2.46823 14.6583Z" fill="#D8CCEB"/>
<path d="M51.3827 13.5971H19.9067V15.8885H51.3827V13.5971Z" fill="#D8CCEB"/>
<path d="M26.9254 21.7254C26.2983 21.7254 25.7917 21.2189 25.7917 20.5918V7.13306C25.7917 6.50595 26.2983 5.99945 26.9254 5.99945C27.5525 5.99945 28.059 6.50595 28.059 7.13306V20.5918C28.059 21.2189 27.5525 21.7254 26.9254 21.7254Z" fill="#D8CCEB"/>
<path d="M33.0999 21.7254C32.4728 21.7254 31.9663 21.2189 31.9663 20.5918V7.13306C31.9663 6.50595 32.4728 5.99945 33.0999 5.99945C33.727 5.99945 34.2335 6.50595 34.2335 7.13306V20.5918C34.2335 21.2189 33.727 21.7254 33.0999 21.7254Z" fill="#D8CCEB"/>
<path d="M39.2506 21.7254C38.6235 21.7254 38.1169 21.2189 38.1169 20.5918V7.13306C38.1169 6.50595 38.6235 5.99945 39.2506 5.99945C39.8777 5.99945 40.3842 6.50595 40.3842 7.13306V20.5918C40.3842 21.2189 39.8777 21.7254 39.2506 21.7254Z" fill="#D8CCEB"/>
<path d="M45.4251 21.7254C44.798 21.7254 44.2915 21.2189 44.2915 20.5918V7.13306C44.2915 6.50595 44.798 5.99945 45.4251 5.99945C46.0522 5.99945 46.5587 6.50595 46.5587 7.13306V20.5918C46.5587 21.2189 46.0522 21.7254 45.4251 21.7254Z" fill="#D8CCEB"/>
<path d="M58.8597 5.54118L50.3696 14.7307L58.8597 23.3896L56.9543 14.7307L58.8597 5.54118Z" fill="#F6EDFF"/>
<path d="M58.8595 24.5473C58.5701 24.5473 58.2565 24.4268 58.0395 24.2097L49.5494 15.5508C49.1152 15.1166 49.1152 14.4172 49.5253 13.983L58.0153 4.79348C58.353 4.40757 58.9078 4.31109 59.366 4.55229C59.8243 4.79348 60.0655 5.29998 59.969 5.80649L58.1118 14.7548L59.969 23.1725C60.0896 23.679 59.8484 24.1856 59.3902 24.4268C59.2213 24.4991 59.0525 24.5473 58.8595 24.5473ZM51.9372 14.7066L56.8817 19.7476L55.8205 14.9719C55.7964 14.8031 55.7964 14.6583 55.8205 14.4895L56.9058 9.32795L51.9372 14.7066Z" fill="#D8CCEB"/>
<path d="M13.7081 11.2092C14.7205 11.2092 15.5412 10.3885 15.5412 9.37616C15.5412 8.36378 14.7205 7.54307 13.7081 7.54307C12.6957 7.54307 11.875 8.36378 11.875 9.37616C11.875 10.3885 12.6957 11.2092 13.7081 11.2092Z" fill="#D8CCEB"/>
</svg>
