<svg width="55" height="57" viewBox="0 0 55 57" fill="none" xmlns="http://www.w3.org/2000/svg">
<path d="M51.3265 20.8467V1.18068L39.5819 9.75178C36.1334 8.27745 32.0853 7.45283 27.4874 7.45283C22.7895 7.45283 18.7413 8.25246 15.2929 9.67681L3.6482 1.18068V20.5969C2.02394 24.0203 1.17432 27.9185 1.17432 32.0666C1.17432 45.6605 12.969 55.1561 27.4874 55.1561C42.0307 55.1561 53.8004 45.6605 53.8004 32.0666C53.8004 28.0185 52.9508 24.2202 51.3265 20.8467Z" fill="#F7F7F7"/>
<path d="M51.3267 20.8467V1.18068L39.5821 9.75178C36.7833 8.55233 33.6098 7.77768 30.0614 7.5278C30.0614 7.5278 26.9128 20.5719 32.1854 28.1684C37.408 35.69 53.4507 33.7909 53.7256 33.7659C53.7756 33.2161 53.8006 32.6414 53.8006 32.0666C53.8006 28.0185 52.951 24.2202 51.3267 20.8467Z" fill="#F6EDFF"/>
<path d="M27.4875 56.3556C11.8196 56.3556 0 45.9103 0 32.0666C0 27.7936 0.824624 23.8454 2.47387 20.347V1.18068C2.47387 0.730884 2.72376 0.331066 3.12358 0.131157C3.5234 -0.0687521 3.99818 -0.043765 4.34802 0.23111L15.468 8.32743C19.0413 6.95305 23.0895 6.25337 27.4875 6.25337C31.8355 6.25337 35.8587 6.97805 39.4321 8.4024L50.652 0.23111C51.0018 -0.0187763 51.4766 -0.0687521 51.8764 0.131157C52.2762 0.331066 52.5261 0.730884 52.5261 1.18068V20.5969C54.1504 24.0953 55 27.9435 55 32.0666C54.975 45.9103 43.1554 56.3556 27.4875 56.3556ZM4.79781 3.50462V20.5969C4.79781 20.7718 4.74784 20.9467 4.67287 21.0966C3.12358 24.3701 2.32394 28.0435 2.32394 32.0666C2.32394 44.561 13.119 53.9817 27.4625 53.9817C41.806 53.9817 52.6011 44.561 52.6011 32.0666C52.6011 28.1934 51.8015 24.595 50.2522 21.3715C50.1772 21.2216 50.1272 21.0466 50.1272 20.8717V3.50462L40.2567 10.7013C39.9318 10.9512 39.482 11.0012 39.1072 10.8263C35.6588 9.35196 31.7606 8.62729 27.4625 8.62729C23.0895 8.62729 19.1413 9.35197 15.7179 10.7763C15.343 10.9263 14.8932 10.8763 14.5684 10.6514L4.79781 3.50462Z" fill="#D8CCEB"/>
<path d="M17.6918 28.6682C18.8511 28.6682 19.7909 27.7284 19.7909 26.5691C19.7909 25.4099 18.8511 24.4701 17.6918 24.4701C16.5326 24.4701 15.5928 25.4099 15.5928 26.5691C15.5928 27.7284 16.5326 28.6682 17.6918 28.6682Z" fill="#D8CCEB"/>
<path d="M37.258 28.6682C38.4173 28.6682 39.357 27.7284 39.357 26.5691C39.357 25.4099 38.4173 24.4701 37.258 24.4701C36.0987 24.4701 35.1589 25.4099 35.1589 26.5691C35.1589 27.7284 36.0987 28.6682 37.258 28.6682Z" fill="#D8CCEB"/>
<path d="M27.4876 32.4415C27.4876 32.4415 23.9892 32.1916 23.7393 34.3406C23.4894 36.4896 27.4876 38.3888 27.4876 38.3888C27.4876 38.3888 31.4857 36.4896 31.2359 34.3406C30.986 32.2166 27.4876 32.4415 27.4876 32.4415Z" fill="#D8CCEB"/>
<path d="M27.4875 43.2116C27.0128 43.2116 26.6379 42.8368 26.6379 42.362V36.5146C26.6379 36.0398 27.0128 35.665 27.4875 35.665C27.9623 35.665 28.3372 36.0398 28.3372 36.5146V42.362C28.3122 42.8368 27.9373 43.2116 27.4875 43.2116Z" fill="#D8CCEB"/>
<path d="M27.4874 43.2116C25.7132 43.2116 23.939 42.4619 22.2148 40.9876C21.865 40.6877 21.815 40.163 22.1149 39.7881C22.4147 39.4383 22.9395 39.3883 23.3143 39.6882C26.163 42.1371 28.8368 42.1371 31.6605 39.6882C32.0104 39.3883 32.5351 39.4133 32.86 39.7881C33.1598 40.138 33.1349 40.6627 32.76 40.9876C31.0108 42.4619 29.2616 43.2116 27.4874 43.2116Z" fill="#D8CCEB"/>
<path d="M12.9691 33.7909H7.64649C7.17171 33.7909 6.79688 33.416 6.79688 32.9412C6.79688 32.4665 7.17171 32.0916 7.64649 32.0916H12.9691C13.4439 32.0916 13.8187 32.4665 13.8187 32.9412C13.8187 33.416 13.4439 33.7909 12.9691 33.7909Z" fill="#D8CCEB"/>
<path d="M9.42061 38.1889C9.02079 38.1889 8.64596 37.889 8.59599 37.4892C8.52102 37.0394 8.84587 36.5896 9.29566 36.5146L12.8441 35.9399C13.2938 35.8649 13.7437 36.1898 13.8186 36.6396C13.8936 37.0894 13.5687 37.5391 13.1189 37.6141L9.57055 38.1889C9.52057 38.1889 9.47058 38.1889 9.42061 38.1889Z" fill="#D8CCEB"/>
<path d="M10.3204 42.8867C9.99553 42.8867 9.69566 42.7118 9.54572 42.3869C9.34582 41.9621 9.54573 41.4624 9.97053 41.2625L14.6434 39.1634C15.0682 38.9635 15.568 39.1634 15.7679 39.5882C15.9678 40.013 15.7679 40.5128 15.3431 40.7127L10.6702 42.8117C10.5453 42.8617 10.4203 42.8867 10.3204 42.8867Z" fill="#D8CCEB"/>
<path d="M47.3035 33.7909H41.981C41.5062 33.7909 41.1313 33.416 41.1313 32.9412C41.1313 32.4665 41.5062 32.0916 41.981 32.0916H47.3035C47.7783 32.0916 48.1531 32.4665 48.1531 32.9412C48.1531 33.416 47.7783 33.7909 47.3035 33.7909Z" fill="#D8CCEB"/>
<path d="M45.5293 38.1889C45.4793 38.1889 45.4293 38.1889 45.4044 38.1889L41.856 37.6141C41.4062 37.5391 41.0813 37.1143 41.1563 36.6396C41.2313 36.1898 41.6561 35.8649 42.1309 35.9399L45.6792 36.5146C46.129 36.5896 46.4539 37.0144 46.3789 37.4892C46.304 37.889 45.9541 38.1889 45.5293 38.1889Z" fill="#D8CCEB"/>
<path d="M44.6546 42.8867C44.5297 42.8867 44.4297 42.8617 44.3048 42.8117L39.6319 40.7127C39.2071 40.5128 39.0072 40.013 39.2071 39.5882C39.407 39.1634 39.9068 38.9635 40.3316 39.1634L45.0045 41.2625C45.4293 41.4624 45.6292 41.9621 45.4293 42.3869C45.2793 42.7118 44.9795 42.8867 44.6546 42.8867Z" fill="#D8CCEB"/>
<path d="M49.0027 34.8654C43.6052 34.8654 35.184 33.9408 31.5107 28.6682C26.0882 20.8467 29.1118 7.90262 29.2617 7.35286C29.3617 6.90307 29.8364 6.62819 30.2862 6.72815C30.736 6.8281 31.0109 7.30289 30.911 7.75268C30.886 7.87763 27.9123 20.5219 32.9101 27.7186C37.8328 34.8154 53.5007 32.9662 53.6506 32.9662C54.1254 32.9162 54.5252 33.2411 54.6002 33.6909C54.6502 34.1657 54.3253 34.5655 53.8755 34.6405C53.6007 34.6405 51.6765 34.8654 49.0027 34.8654Z" fill="#D8CCEB"/>
<path d="M6.97179 19.1725C6.7219 19.1725 6.497 19.0726 6.32208 18.8726C6.02222 18.5228 6.07219 17.973 6.42204 17.6732C7.62149 16.6486 9.3707 14.7495 9.47065 13.75C9.47065 12.7254 6.07219 7.02803 2.92363 2.38014C2.67374 2.00531 2.7737 1.48055 3.14853 1.20567C3.52336 0.955784 4.04812 1.05574 4.32299 1.43057C6.42204 4.55415 11.3198 12.0008 11.1449 13.8999C10.97 15.949 8.09628 18.4728 7.52154 18.9726C7.34662 19.0975 7.1717 19.1725 6.97179 19.1725Z" fill="#D8CCEB"/>
<path d="M47.9782 19.1725C47.7783 19.1725 47.6034 19.0975 47.4285 18.9726C46.8537 18.4728 43.98 15.949 43.8051 13.8999C43.6302 12.0008 48.528 4.55415 50.627 1.43057C50.8769 1.05575 51.4016 0.9308 51.8015 1.20567C52.1763 1.45556 52.2762 1.98033 52.0264 2.38014C48.8778 7.05302 45.4793 12.7254 45.4793 13.775C45.5793 14.7745 47.3035 16.6736 48.5279 17.6982C48.8778 17.998 48.9278 18.5228 48.6279 18.8976C48.453 19.0726 48.2281 19.1725 47.9782 19.1725Z" fill="#D8CCEB"/>
</svg>
