<svg width="80" height="46" viewBox="0 0 80 46" fill="none" xmlns="http://www.w3.org/2000/svg">
<path d="M78.6059 5.66128H1.39307V22.1412H78.6059V5.66128Z" fill="#F6EDFF"/>
<path d="M78.6059 23.5343H1.39308C0.62243 23.5343 0 22.9119 0 22.1413V5.66128C0 4.89064 0.62243 4.26819 1.39308 4.26819H78.6059C79.3765 4.26819 79.999 4.89064 79.999 5.66128V22.1116C80.0286 22.8823 79.4062 23.5343 78.6059 23.5343ZM2.78617 20.7185H77.2128V7.05438H2.78617V20.7185Z" fill="#D8CCEB"/>
<path d="M45.4088 27.7433H34.6197C27.9803 27.7433 22.5562 22.3487 22.5562 15.6797V12.0636C22.5562 5.42417 27.9507 0 34.6197 0H45.4088C52.0482 0 57.4724 5.39453 57.4724 12.0636V15.6797C57.4427 22.3487 52.0482 27.7433 45.4088 27.7433ZM34.6197 2.81582C29.5216 2.81582 25.372 6.96546 25.372 12.0636V15.6797C25.372 20.7778 29.5216 24.9274 34.6197 24.9274H45.4088C50.5069 24.9274 54.6565 20.7778 54.6565 15.6797V12.0636C54.6565 6.96546 50.5069 2.81582 45.4088 2.81582H34.6197Z" fill="#D8CCEB"/>
<path d="M60.3772 15.2944H46.2388C45.4682 15.2944 44.8457 14.6719 44.8457 13.9013C44.8457 13.1306 45.4682 12.5082 46.2388 12.5082H60.3772C61.1478 12.5082 61.7703 13.1306 61.7703 13.9013C61.7703 14.6719 61.1478 15.2944 60.3772 15.2944Z" fill="#D8CCEB"/>
<path d="M46.2091 16.6282C47.7151 16.6282 48.936 15.4073 48.936 13.9013C48.936 12.3952 47.7151 11.1744 46.2091 11.1744C44.7031 11.1744 43.4822 12.3952 43.4822 13.9013C43.4822 15.4073 44.7031 16.6282 46.2091 16.6282Z" fill="#D8CCEB"/>
<path d="M33.523 16.6282C35.0291 16.6282 36.2499 15.4073 36.2499 13.9013C36.2499 12.3952 35.0291 11.1744 33.523 11.1744C32.017 11.1744 30.7961 12.3952 30.7961 13.9013C30.7961 15.4073 32.017 16.6282 33.523 16.6282Z" fill="#D8CCEB"/>
<path d="M67.5797 16.6282C69.0857 16.6282 70.3066 15.4073 70.3066 13.9013C70.3066 12.3952 69.0857 11.1744 67.5797 11.1744C66.0737 11.1744 64.8528 12.3952 64.8528 13.9013C64.8528 15.4073 66.0737 16.6282 67.5797 16.6282Z" fill="#D8CCEB"/>
<path d="M14.1385 16.6282C15.6445 16.6282 16.8654 15.4073 16.8654 13.9013C16.8654 12.3952 15.6445 11.1744 14.1385 11.1744C12.6325 11.1744 11.4116 12.3952 11.4116 13.9013C11.4116 15.4073 12.6325 16.6282 14.1385 16.6282Z" fill="#D8CCEB"/>
<path d="M41.4369 26.3502H38.6211V31.5372H41.4369V26.3502Z" fill="#D8CCEB"/>
<path d="M40.0142 43.9565C43.4519 43.9565 46.2387 41.1697 46.2387 37.732C46.2387 34.2943 43.4519 31.5076 40.0142 31.5076C36.5766 31.5076 33.7898 34.2943 33.7898 37.732C33.7898 41.1697 36.5766 43.9565 40.0142 43.9565Z" fill="#F6EDFF"/>
<path d="M40.0143 45.3496C35.8054 45.3496 32.3967 41.9409 32.3967 37.732C32.3967 33.5231 35.8054 30.1145 40.0143 30.1145C44.2232 30.1145 47.6318 33.5231 47.6318 37.732C47.6318 41.9409 44.1936 45.3496 40.0143 45.3496ZM40.0143 32.9303C37.3763 32.9303 35.2126 35.094 35.2126 37.732C35.2126 40.37 37.3763 42.5337 40.0143 42.5337C42.6523 42.5337 44.816 40.37 44.816 37.732C44.816 35.094 42.6523 32.9303 40.0143 32.9303Z" fill="#D8CCEB"/>
<path d="M46.2091 37.1392H33.7898V39.955H46.2091V37.1392Z" fill="#D8CCEB"/>
</svg>
